<?xml version="1.0" standalone="no"?>
<!DOCTYPE svg PUBLIC "-//W3C//DTD SVG 20010904//EN"
 "http://www.w3.org/TR/2001/REC-SVG-20010904/DTD/svg10.dtd">
<svg version="1.0" xmlns="http://www.w3.org/2000/svg"
 width="500.000000pt" height="500.000000pt" viewBox="0 0 500.000000 500.000000"
 preserveAspectRatio="xMidYMid meet">
<metadata>
Created by potrace 1.14, written by Peter Selinger 2001-2017
</metadata>
<g transform="translate(0.000000,500.000000) scale(0.100000,-0.100000)"
fill="#000000" stroke="none">
<path d="M2237 4000 c-678 -123 -1183 -668 -1257 -1355 -12 -115 -1 -324 25
-451 56 -274 194 -538 385 -738 307 -320 673 -479 1105 -479 420 -1 790 154
1090 458 315 318 471 763 425 1210 -38 373 -191 688 -462 950 -204 199 -459
335 -743 397 -138 30 -425 34 -568 8z m394 -40 c504 -51 934 -340 1164 -782
438 -842 -12 -1855 -932 -2102 -138 -37 -264 -49 -426 -43 -207 7 -377 49
-563 136 -421 199 -715 574 -815 1041 -31 144 -34 441 -5 570 62 286 188 527
380 728 313 328 757 496 1197 452z"/>
<path d="M2360 3708 c0 -117 6 -140 34 -136 18 3 21 9 18 41 -5 49 21 50 49 2
15 -25 28 -35 45 -35 29 0 30 4 3 47 -15 24 -18 37 -11 42 19 12 30 54 20 82
-12 33 -46 49 -108 49 l-50 0 0 -92z m117 26 c7 -19 -21 -44 -49 -44 -13 0
-18 8 -18 30 0 27 3 30 30 30 19 0 33 -6 37 -16z"/>
<path d="M2585 3693 c-4 -60 -8 -110 -8 -113 -1 -9 35 -12 43 -3 5 4 11 56 15
116 l7 107 -25 0 c-25 0 -25 -1 -32 -107z"/>
<path d="M2744 3751 c-50 -31 -68 -105 -39 -162 27 -50 103 -66 143 -29 12 12
22 25 22 30 0 16 -34 16 -62 1 -24 -14 -28 -14 -47 3 -25 23 -27 56 -6 96 21
40 70 42 87 5 7 -16 19 -25 33 -25 18 0 21 4 17 25 -6 33 -57 75 -90 75 -15 0
-41 -9 -58 -19z"/>
<path d="M2062 3730 c-12 -5 -27 -21 -34 -35 -10 -22 -8 -30 11 -56 17 -23 20
-34 12 -42 -19 -19 -13 -65 11 -81 32 -22 55 -20 84 9 18 18 32 23 49 19 13
-3 31 -2 40 4 14 7 11 12 -20 31 -34 20 -37 24 -31 55 6 31 5 34 -15 29 -11
-3 -24 -14 -28 -24 -6 -18 -9 -17 -40 9 -29 24 -31 29 -18 40 10 9 17 10 22 2
10 -16 45 -12 52 6 13 34 -44 54 -95 34z m66 -157 c5 -17 -26 -29 -40 -15 -6
6 -7 15 -3 22 9 14 37 9 43 -7z"/>
<path d="M2936 3613 c-45 -91 -47 -98 -30 -110 26 -19 30 -17 48 27 9 22 18
40 21 40 2 0 20 -7 39 -17 l35 -16 -21 -40 c-19 -39 -20 -41 -2 -54 10 -7 21
-13 24 -13 3 0 27 45 52 100 43 94 45 101 28 110 -26 14 -25 14 -45 -29 l-17
-39 -37 15 c-20 8 -37 16 -39 18 -2 2 6 21 17 44 21 40 21 40 2 51 -11 5 -21
10 -23 10 -2 0 -25 -44 -52 -97z"/>
<path d="M1751 3564 c-40 -33 -43 -85 -8 -109 21 -13 29 -13 70 -1 40 12 48
12 58 0 18 -22 -8 -46 -41 -39 -18 4 -31 1 -40 -10 -19 -22 1 -39 46 -39 28 0
43 7 65 32 33 37 36 58 13 90 -17 25 -52 28 -104 11 -26 -9 -34 -9 -41 2 -12
20 11 41 36 35 14 -4 28 1 39 13 17 18 17 20 -3 30 -31 17 -57 13 -90 -15z"/>
<path d="M3156 3505 c-58 -73 -77 -105 -62 -105 2 0 11 -2 19 -6 9 -3 28 13
52 45 22 28 40 49 42 47 2 -2 -7 -33 -20 -70 -20 -54 -22 -68 -11 -77 10 -8
24 -3 56 19 87 59 94 58 44 -4 -44 -54 -46 -59 -30 -71 10 -7 20 -13 23 -13 7
1 124 148 130 162 4 13 -29 48 -46 48 -7 0 -34 -13 -60 -29 -26 -17 -49 -28
-51 -27 -1 2 6 28 18 57 11 30 20 57 20 60 0 3 -13 15 -29 27 l-29 21 -66 -84z"/>
<path d="M1614 3449 c-17 -19 -15 -22 59 -97 65 -67 78 -76 92 -66 9 7 15 17
14 22 -2 6 -36 44 -76 85 -70 73 -72 75 -89 56z"/>
<path d="M2348 3380 c-330 -56 -602 -301 -705 -637 -24 -80 -27 -102 -27 -243
1 -140 3 -164 28 -245 95 -313 341 -545 658 -620 84 -20 295 -20 388 0 324 68
584 321 671 652 27 102 29 305 5 408 -70 294 -260 516 -543 635 -123 52 -333
74 -475 50z m362 -71 c362 -90 621 -428 621 -809 0 -224 -78 -416 -235 -578
-122 -127 -263 -205 -429 -238 -123 -25 -316 -16 -422 20 -275 93 -483 314
-556 591 -29 108 -31 290 -5 395 24 101 103 261 166 338 206 252 539 361 860
281z"/>
<path d="M2625 2836 c-87 -39 -130 -149 -89 -228 l16 -31 -103 -103 -103 -103
-57 54 c-38 36 -63 53 -73 49 -28 -11 -17 -37 36 -91 l52 -53 -26 -27 -27 -27
-56 53 c-56 53 -87 62 -93 27 -3 -12 15 -37 48 -71 28 -29 51 -58 50 -66 -4
-26 0 -37 17 -43 12 -5 64 41 197 174 l182 180 41 -16 c66 -26 125 -13 178 41
34 33 45 53 50 89 21 135 -119 246 -240 192z m125 -61 c34 -17 60 -62 60 -100
0 -38 -26 -83 -60 -100 -102 -53 -208 53 -155 155 28 55 98 75 155 45z"/>
<path d="M1520 3365 c-10 -12 -3 -25 38 -72 28 -32 49 -59 48 -61 -2 -1 -34 9
-72 22 -50 18 -72 22 -81 14 -20 -16 -17 -25 33 -89 25 -32 43 -59 40 -59 -3
0 -35 12 -71 27 -61 25 -67 26 -82 10 -9 -9 -15 -18 -12 -21 2 -2 49 -22 104
-44 91 -37 101 -39 118 -25 24 22 22 29 -25 91 -22 31 -35 53 -27 50 98 -37
117 -42 133 -29 9 7 16 20 16 28 0 15 -128 173 -140 173 -4 0 -13 -7 -20 -15z"/>
<path d="M3379 3317 c-18 -12 -39 -38 -47 -58 -18 -48 3 -100 49 -124 43 -23
96 -7 138 40 86 99 -30 216 -140 142z m114 -49 c16 -25 -6 -65 -48 -85 -33
-16 -36 -16 -55 2 -27 25 -25 41 10 76 33 34 75 37 93 7z"/>
<path d="M3525 3103 c-49 -25 -91 -47 -93 -48 -2 -2 1 -13 8 -24 11 -21 11
-21 71 10 34 17 60 27 58 22 -2 -4 -21 -34 -43 -65 -29 -44 -37 -63 -32 -83 4
-14 11 -25 16 -25 18 0 200 88 200 97 0 4 -5 15 -10 23 -8 12 -17 11 -66 -13
-31 -15 -58 -26 -61 -23 -3 2 14 32 38 65 38 54 41 63 31 86 -6 14 -15 25 -19
24 -5 0 -48 -21 -98 -46z"/>
<path d="M1309 3023 c-43 -98 -48 -86 59 -129 53 -21 100 -39 105 -39 5 0 21
30 37 67 l29 67 -22 7 c-11 4 -23 3 -24 -2 -2 -5 -11 -25 -21 -45 -15 -32 -20
-36 -39 -28 -21 8 -22 10 -7 44 8 20 12 40 9 45 -12 20 -31 9 -44 -25 -12 -35
-25 -42 -48 -27 -9 6 -7 19 8 51 15 35 17 46 7 53 -22 14 -28 9 -49 -39z"/>
<path d="M3650 2884 c-30 -9 -71 -19 -92 -25 l-36 -9 12 -48 c18 -68 31 -87
65 -102 40 -16 93 -6 131 26 33 28 39 67 19 137 -11 42 -16 43 -99 21z m69
-80 c2 -21 -34 -52 -66 -59 -24 -5 -36 -2 -52 14 -38 38 -28 56 42 72 65 15
74 12 76 -27z"/>
<path d="M1415 2780 c-8 -46 -9 -46 -101 -24 -73 17 -94 14 -94 -13 0 -15 19
-23 103 -41 56 -12 105 -22 109 -22 4 0 12 26 18 57 7 32 15 63 17 70 3 9 -4
13 -20 13 -22 0 -26 -6 -32 -40z"/>
<path d="M1601 1752 l-43 -37 26 -24 c27 -26 48 -22 26 4 -11 13 -8 21 19 49
46 47 24 53 -28 8z"/>
<path d="M3291 1727 c-29 -32 -27 -41 16 -76 l38 -31 24 25 c28 28 21 47 -8
21 -23 -20 -40 -4 -20 20 6 8 9 17 5 21 -3 4 -12 -2 -20 -12 -9 -13 -15 -15
-20 -6 -5 7 -1 20 9 31 24 27 2 33 -24 7z"/>
<path d="M1676 1679 c-29 -34 -31 -42 -16 -70 15 -28 52 -23 85 11 37 38 25
51 -15 16 -46 -38 -74 -11 -30 29 21 19 27 45 11 45 -5 0 -21 -14 -35 -31z"/>
<path d="M3206 1641 c-16 -17 -23 -31 -18 -35 6 -4 14 -1 17 5 5 6 17 -2 34
-22 15 -17 33 -30 39 -28 8 3 2 17 -17 40 -21 25 -27 39 -20 46 7 7 7 13 1 17
-5 3 -21 -8 -36 -23z"/>
<path d="M1797 1613 c-4 -3 -7 -16 -7 -29 0 -15 -8 -24 -25 -28 -14 -4 -25
-11 -25 -17 0 -7 10 -9 25 -5 22 6 25 3 25 -19 0 -14 5 -25 10 -25 6 0 10 11
10 25 0 17 9 29 30 40 38 20 38 29 1 22 -25 -5 -28 -4 -23 19 4 23 -7 32 -21
17z"/>
<path d="M3115 1568 c-7 -19 20 -101 35 -106 9 -3 11 1 7 11 -7 18 17 42 33
32 5 -3 15 -3 21 0 6 4 -3 17 -23 32 -53 39 -68 46 -73 31z m40 -38 c3 -5 1
-10 -4 -10 -6 0 -11 5 -11 10 0 6 2 10 4 10 3 0 8 -4 11 -10z"/>
<path d="M1880 1518 c-23 -38 -25 -59 -8 -76 21 -21 56 -14 76 16 32 46 34 52
18 52 -9 0 -22 -13 -31 -30 -9 -16 -22 -30 -30 -30 -20 0 -19 34 1 64 10 16
11 26 5 31 -6 3 -20 -9 -31 -27z"/>
<path d="M3018 1512 c-29 -17 -39 -46 -14 -36 8 3 22 -9 36 -30 29 -48 45 -36
20 14 -12 24 -16 41 -10 45 12 7 13 25 3 25 -5 0 -20 -8 -35 -18z"/>
<path d="M1989 1445 c-19 -44 -17 -86 3 -51 11 20 28 12 28 -15 0 -10 5 -19
10 -19 6 0 10 11 10 24 0 13 7 26 15 30 22 8 18 43 -7 60 -32 23 -37 21 -59
-29z m59 -3 c2 -7 -5 -12 -17 -12 -14 0 -19 5 -14 15 6 17 25 15 31 -3z"/>
<path d="M2906 1457 c-29 -21 -17 -51 22 -55 17 -2 32 -8 32 -13 0 -6 -8 -9
-18 -7 -11 2 -20 -1 -20 -7 -3 -17 50 -11 62 7 14 22 -4 42 -39 43 -14 0 -24
5 -24 10 1 6 11 9 22 7 12 -2 18 1 15 10 -6 18 -30 21 -52 5z"/>
<path d="M2113 1392 c1 -34 4 -61 7 -60 4 2 23 22 44 46 37 40 32 60 -6 25
-15 -13 -18 -14 -18 -1 0 8 -6 23 -14 33 -13 18 -14 13 -13 -43z"/>
<path d="M2815 1428 c-16 -6 -32 -12 -34 -14 -3 -3 29 -104 33 -104 2 0 17 5
35 11 37 13 43 34 7 25 -14 -3 -28 -1 -31 5 -4 6 2 13 14 16 12 3 21 10 21 15
0 6 -11 7 -25 4 -15 -4 -25 -2 -25 5 0 6 9 13 20 16 11 3 20 12 20 19 0 8 -1
14 -2 13 -2 0 -16 -5 -33 -11z"/>
<path d="M2276 1362 c-8 -53 -7 -72 4 -72 6 0 10 7 10 15 0 22 18 18 25 -5 3
-11 13 -20 21 -20 11 0 12 4 5 19 -8 14 -7 22 4 31 29 24 14 52 -36 63 -24 6
-27 4 -33 -31z m54 -7 c0 -8 -7 -15 -15 -15 -8 0 -15 7 -15 15 0 8 7 15 15 15
8 0 15 -7 15 -15z"/>
<path d="M2630 1358 c0 -63 10 -79 43 -76 17 2 32 9 35 16 3 9 -3 11 -21 7
-23 -6 -25 -3 -31 39 -8 53 -26 62 -26 14z"/>
<path d="M2390 1325 l0 -55 35 0 c37 0 49 16 15 22 -22 3 -28 22 -7 24 29 4
31 6 10 14 -31 12 -29 30 2 30 14 0 25 5 25 10 0 6 -18 10 -40 10 l-40 0 0
-55z"/>
<path d="M2518 1328 c-16 -55 -7 -74 18 -42 13 18 15 18 28 2 15 -21 41 -24
33 -5 -32 79 -41 97 -52 97 -7 0 -19 -24 -27 -52z m42 -9 c0 -5 -4 -9 -10 -9
-5 0 -10 7 -10 16 0 8 5 12 10 9 6 -3 10 -10 10 -16z"/>
</g>
</svg>
